#N canvas 1680 -695 1920 1027 12;
#X obj 109 1 bng 15 250 50 0 empty empty empty 17 7 0 10 -262144 -1
-1;
#X obj 97 117 soundfiler;
#X obj 14 163 s sampleSize;
#N canvas 0 22 450 278 (subpatch) 0;
#X array channelL 308700 float 2;
#X coords 0 1 308700 -1 200 140 1;
#X restore 656 15 graph;
#N canvas 0 22 450 278 (subpatch) 0;
#X array channelR 308700 float 2;
#X coords 0 1 308700 -1 200 140 1 0 0;
#X restore 654 171 graph;
#X obj 109 21 openpanel;
#X obj 95 936 dac~ 1 2;
#X msg 110 70 read -resize \$1 channelL channelR;
#X obj 131 317 tgl 15 0 empty empty empty 17 7 0 10 -262144 -1 -1 0
1;
#X floatatom 159 428 5 0 0 0 Number_of_Voices - -;
#X obj 0 298 + 1;
#X msg 29 361 0;
#X obj -1 255 i;
#X msg 108 481 \$1;
#X obj 150 213 unpack;
#X obj 147 277 s sampleRate;
#X obj 277 592 vu 15 120 empty empty -1 -8 0 10 -66577 -1 1 0;
#N canvas 329 161 625 417 vu 0;
#X obj 59 129 env~ 1024;
#X obj 161 111 abs~;
#X obj 161 213 snapshot~;
#X obj 161 256 rmstodb;
#X obj 161 21 inlet~;
#X obj 161 288 - 100;
#X obj 59 287 - 100;
#X obj 59 361 outlet;
#X obj 161 361 outlet;
#X text 344 307 Check the help file of env~ and slop~ for more details.
, f 31;
#X obj 239 89 expr 1000 / $f1;
#X floatatom 239 117 5 0 0 0 - - -;
#X obj 161 146 slop~ 0 0 0 0 1e+09;
#X obj 239 18 inlet;
#X floatatom 239 57 5 0 0 0 - - -;
#X text 359 89 convert to hz;
#X text 282 118 hz;
#X text 284 57 peak decay time in ms;
#X obj 59 171 t f b;
#X text 345 132 The env~ object is dedicated to RMS analysis. Its output
is in dB (0-100 range \, pd style) but needs to be converted to dBFS
(and we do that by simply subtracting 100)., f 31;
#X text 345 225 The slop~ object is used here for peak detection. We
need to convert the output to dB with rmstodb and also subtract by
100 to convert it to dBFS., f 31;
#X connect 0 0 18 0;
#X connect 1 0 12 0;
#X connect 2 0 3 0;
#X connect 3 0 5 0;
#X connect 4 0 0 0;
#X connect 4 0 1 0;
#X connect 5 0 8 0;
#X connect 6 0 7 0;
#X connect 10 0 11 0;
#X connect 11 0 12 3;
#X connect 12 0 2 0;
#X connect 13 0 14 0;
#X connect 14 0 10 0;
#X connect 18 0 6 0;
#X connect 18 1 2 0;
#X restore 264 559 pd vu;
#N canvas 329 161 625 417 vu 0;
#X obj 59 129 env~ 1024;
#X obj 161 111 abs~;
#X obj 161 213 snapshot~;
#X obj 161 256 rmstodb;
#X obj 161 21 inlet~;
#X obj 161 288 - 100;
#X obj 59 287 - 100;
#X obj 59 361 outlet;
#X obj 161 361 outlet;
#X text 344 307 Check the help file of env~ and slop~ for more details.
, f 31;
#X obj 239 89 expr 1000 / $f1;
#X floatatom 239 117 5 0 0 0 - - -;
#X obj 161 146 slop~ 0 0 0 0 1e+09;
#X obj 239 18 inlet;
#X floatatom 239 57 5 0 0 0 - - -;
#X text 359 89 convert to hz;
#X text 282 118 hz;
#X text 284 57 peak decay time in ms;
#X obj 59 171 t f b;
#X text 345 132 The env~ object is dedicated to RMS analysis. Its output
is in dB (0-100 range \, pd style) but needs to be converted to dBFS
(and we do that by simply subtracting 100)., f 31;
#X text 345 225 The slop~ object is used here for peak detection. We
need to convert the output to dB with rmstodb and also subtract by
100 to convert it to dBFS., f 31;
#X connect 0 0 18 0;
#X connect 1 0 12 0;
#X connect 2 0 3 0;
#X connect 3 0 5 0;
#X connect 4 0 0 0;
#X connect 4 0 1 0;
#X connect 5 0 8 0;
#X connect 6 0 7 0;
#X connect 10 0 11 0;
#X connect 11 0 12 3;
#X connect 12 0 2 0;
#X connect 13 0 14 0;
#X connect 14 0 10 0;
#X connect 18 0 6 0;
#X connect 18 1 2 0;
#X restore 87 567 pd vu;
#X obj 20 601 vu 15 120 empty empty -1 -8 0 10 -66577 -1 1 0;
#X obj 216 822 vu 15 120 empty empty -1 -8 0 10 -66577 -1 1 0;
#N canvas 329 161 625 417 vu 0;
#X obj 59 129 env~ 1024;
#X obj 161 111 abs~;
#X obj 161 213 snapshot~;
#X obj 161 256 rmstodb;
#X obj 161 21 inlet~;
#X obj 161 288 - 100;
#X obj 59 287 - 100;
#X obj 59 361 outlet;
#X obj 161 361 outlet;
#X text 344 307 Check the help file of env~ and slop~ for more details.
, f 31;
#X obj 239 89 expr 1000 / $f1;
#X floatatom 239 117 5 0 0 0 - - -;
#X obj 161 146 slop~ 0 0 0 0 1e+09;
#X obj 239 18 inlet;
#X floatatom 239 57 5 0 0 0 - - -;
#X text 359 89 convert to hz;
#X text 282 118 hz;
#X text 284 57 peak decay time in ms;
#X obj 59 171 t f b;
#X text 345 132 The env~ object is dedicated to RMS analysis. Its output
is in dB (0-100 range \, pd style) but needs to be converted to dBFS
(and we do that by simply subtracting 100)., f 31;
#X text 345 225 The slop~ object is used here for peak detection. We
need to convert the output to dB with rmstodb and also subtract by
100 to convert it to dBFS., f 31;
#X connect 0 0 18 0;
#X connect 1 0 12 0;
#X connect 2 0 3 0;
#X connect 3 0 5 0;
#X connect 4 0 0 0;
#X connect 4 0 1 0;
#X connect 5 0 8 0;
#X connect 6 0 7 0;
#X connect 10 0 11 0;
#X connect 11 0 12 3;
#X connect 12 0 2 0;
#X connect 13 0 14 0;
#X connect 14 0 10 0;
#X connect 18 0 6 0;
#X connect 18 1 2 0;
#X restore 202 735 pd vu;
#X obj 29 776 vu 15 120 empty empty -1 -8 0 10 -66577 -1 1 0;
#N canvas 329 161 625 417 vu 0;
#X obj 59 129 env~ 1024;
#X obj 161 111 abs~;
#X obj 161 213 snapshot~;
#X obj 161 256 rmstodb;
#X obj 161 21 inlet~;
#X obj 161 288 - 100;
#X obj 59 287 - 100;
#X obj 59 361 outlet;
#X obj 161 361 outlet;
#X text 344 307 Check the help file of env~ and slop~ for more details.
, f 31;
#X obj 239 89 expr 1000 / $f1;
#X floatatom 239 117 5 0 0 0 - - -;
#X obj 161 146 slop~ 0 0 0 0 1e+09;
#X obj 239 18 inlet;
#X floatatom 239 57 5 0 0 0 - - -;
#X text 359 89 convert to hz;
#X text 282 118 hz;
#X text 284 57 peak decay time in ms;
#X obj 59 171 t f b;
#X text 345 132 The env~ object is dedicated to RMS analysis. Its output
is in dB (0-100 range \, pd style) but needs to be converted to dBFS
(and we do that by simply subtracting 100)., f 31;
#X text 345 225 The slop~ object is used here for peak detection. We
need to convert the output to dB with rmstodb and also subtract by
100 to convert it to dBFS., f 31;
#X connect 0 0 18 0;
#X connect 1 0 12 0;
#X connect 2 0 3 0;
#X connect 3 0 5 0;
#X connect 4 0 0 0;
#X connect 4 0 1 0;
#X connect 5 0 8 0;
#X connect 6 0 7 0;
#X connect 10 0 11 0;
#X connect 11 0 12 3;
#X connect 12 0 2 0;
#X connect 13 0 14 0;
#X connect 14 0 10 0;
#X connect 18 0 6 0;
#X connect 18 1 2 0;
#X restore 16 743 pd vu;
#X obj 170 708 *~;
#X obj 84 708 *~;
#X obj 403 575 vsl 15 128 0 1 0 0 empty empty empty 0 -9 0 10 -262144
-1 -1 0 1;
#X obj 385 852 line~;
#X obj 390 731 t f b;
#X msg 423 779 15;
#X obj 385 809 pack;
#X obj 256 159 expr $f1 / $f2;
#X floatatom 432 201 5 0 0 0 Duration_sec - -;
#X obj 134 357 metro 1371;
#X obj 256 100 r sampleSize;
#X obj 385 99 r sampleRate;
#X obj 550 118 nbx 5 14 0 1000 0 1 empty empty Times_of_Duration 0
-8 0 10 -262144 -1 -1 1 256;
#X obj 324 353 nbx 5 14 -1e+37 1e+37 0 1 empty empty Duration_Total
0 -8 0 10 -262144 -1 -1 9518.7 256;
#X obj 12 335 sel 666;
#X obj 385 123 bng 15 250 50 0 empty empty empty 17 7 0 10 -262144
-1 -1;
#X obj 432 268 expr ($f1 * $f2) * 1000;
#X obj 497 141 t b f;
#X obj 481 488 t b b b;
#X obj 371 309 +;
#X obj 618 370 noise~;
#X obj 619 475 snapshot~;
#X obj 618 408 *~, f 10;
#X obj 280 450 delay;
#X obj 83 524 clone player 666;
#X text 223 1 1 load audio file;
#X text 528 101 2;
#X text 304 335 2;
#X text 153 312 3 activate toggle;
#X connect 0 0 5 0;
#X connect 1 0 2 0;
#X connect 1 1 14 0;
#X connect 5 0 7 0;
#X connect 7 0 1 0;
#X connect 8 0 33 0;
#X connect 9 0 13 0;
#X connect 10 0 9 0;
#X connect 10 0 12 1;
#X connect 10 0 38 0;
#X connect 11 0 12 1;
#X connect 11 0 8 0;
#X connect 12 0 10 0;
#X connect 13 0 48 0;
#X connect 14 0 15 0;
#X connect 17 0 16 0;
#X connect 18 0 19 0;
#X connect 21 0 20 0;
#X connect 23 0 22 0;
#X connect 24 0 21 0;
#X connect 24 0 6 1;
#X connect 25 0 23 0;
#X connect 25 0 6 0;
#X connect 26 0 28 0;
#X connect 27 0 24 1;
#X connect 27 0 25 1;
#X connect 28 0 30 0;
#X connect 28 1 29 0;
#X connect 29 0 30 1;
#X connect 30 0 27 0;
#X connect 31 0 32 0;
#X connect 32 0 40 0;
#X connect 33 0 12 0;
#X connect 33 0 47 0;
#X connect 34 0 31 0;
#X connect 35 0 31 1;
#X connect 35 0 39 0;
#X connect 36 0 41 0;
#X connect 37 0 33 1;
#X connect 37 0 47 1;
#X connect 38 0 11 0;
#X connect 39 0 31 0;
#X connect 40 0 43 1;
#X connect 40 0 46 1;
#X connect 41 0 32 0;
#X connect 41 1 40 1;
#X connect 42 0 8 0;
#X connect 42 1 8 0;
#X connect 42 2 45 0;
#X connect 43 0 37 0;
#X connect 44 0 46 0;
#X connect 45 0 43 0;
#X connect 46 0 45 0;
#X connect 47 0 42 0;
#X connect 48 0 18 0;
#X connect 48 0 25 0;
#X connect 48 1 17 0;
#X connect 48 1 24 0;
