#N canvas 315 211 1157 629 12;
#X obj 337 263 phasor~;
#X obj 332 299 *~, f 13;
#X obj 425 258 r sampleSize;
#X obj 457 577 outlet~;
#X obj 272 577 outlet~;
#X obj 431 119 r sampleSize;
#X obj 356 95 r sampleRate;
#X obj 332 128 f;
#X obj 339 32 inlet \$2;
#X obj 270 490 tabread4~ channelL;
#X obj 452 493 tabread4~ channelR;
#X obj 336 222 expr $f1 / $f2;
#X obj 563 397 line~;
#X msg 567 354 1 15;
#X obj 568 56 bng 15 250 50 0 empty empty empty 17 7 0 10 -262144 -1
-1;
#X obj 451 539 *~;
#X obj 298 537 *~;
#X obj 612 286 sel 1 2;
#X obj 269 438 *~, f 17;
#X obj 612 112 random 2;
#X obj 661 178 + 1;
#X obj 643 402 line~;
#X msg 647 359 1 15;
#X obj 452 436 *~, f 17;
#X obj 705 402 line~;
#X msg 709 359 1 15;
#X obj 318 372 -~ -1;
#X connect 0 0 1 0;
#X connect 1 0 23 0;
#X connect 1 0 26 0;
#X connect 2 0 1 1;
#X connect 5 0 11 1;
#X connect 6 0 7 1;
#X connect 7 0 11 0;
#X connect 8 0 7 0;
#X connect 8 0 14 0;
#X connect 9 0 16 0;
#X connect 10 0 15 0;
#X connect 11 0 0 0;
#X connect 12 0 15 1;
#X connect 12 0 16 1;
#X connect 13 0 12 0;
#X connect 14 0 13 0;
#X connect 14 0 19 0;
#X connect 15 0 3 0;
#X connect 16 0 4 0;
#X connect 17 0 22 0;
#X connect 17 1 25 0;
#X connect 18 0 9 0;
#X connect 18 0 10 0;
#X connect 19 0 20 0;
#X connect 20 0 17 0;
#X connect 21 0 18 1;
#X connect 22 0 21 0;
#X connect 23 0 9 0;
#X connect 23 0 10 0;
#X connect 24 0 23 1;
#X connect 25 0 24 0;
#X connect 26 0 18 0;
